<svg width="65" height="65" viewBox="0 0 65 65" fill="none" xmlns="http://www.w3.org/2000/svg">
<g clip-path="url(#clip0_2_1832)">
<path d="M26.8506 0.0761642C22.623 0.5205 19.1445 1.54882 15.6152 3.37695C13.0381 4.72265 12.4541 5.25586 12.6318 6.10644C12.6826 6.30957 12.8984 6.61425 13.1143 6.80468C13.6221 7.23632 14.168 7.17285 15.1074 6.57617C18.4082 4.48144 22.5342 3.08496 26.6475 2.66601C32.6143 2.06933 38.9238 3.66894 44.002 7.05859C52.1016 12.4795 56.6592 22.0518 55.7197 31.6875C55.4912 34.0107 54.7676 37.1084 54.0439 38.835L53.8662 39.2539L53.0664 37.8701C52.6221 37.1211 52.0254 36.2705 51.7334 35.9912L51.1875 35.4834L51.4795 34.2012C53.1426 26.7871 51.0479 19.1826 45.7793 13.4951C42.8086 10.2959 38.416 7.82031 34.0234 6.88086C28.9961 5.80175 23.9688 6.39843 19.335 8.63281C9.77539 13.2412 4.65918 23.6768 6.88086 34.0234C7.27441 35.8643 7.79492 37.3496 8.68359 39.165C11.0322 43.9385 14.4727 47.3662 19.2334 49.7148C23.9307 52.0254 29.0977 52.6348 34.2012 51.4795C34.8994 51.3145 35.5088 51.2129 35.5342 51.2256C35.5596 51.251 35.0137 52.2412 34.3281 53.4219C32.8809 55.9229 33.3125 55.6816 30.2148 55.8086C20.833 56.2275 11.5781 51.3271 6.60156 43.3037C1.30762 34.7725 1.20605 23.9434 6.34766 15.4883C7.17285 14.1426 7.26172 13.6602 6.80469 13.1143C6.14453 12.3398 5.35742 12.4541 4.64648 13.4189C4.01172 14.2822 2.24707 17.8496 1.70117 19.3603C1.14258 20.9219 0.583984 23.207 0.291992 25.0732C-0.0126953 27.0283 -0.0126953 31.3828 0.291992 33.3887C0.774414 36.499 1.56152 39.0635 2.91992 41.8564C7.16016 50.6289 15.3105 56.6211 25.0098 58.0937C26.0127 58.2461 27.2695 58.3223 29.0469 58.3223L31.6113 58.335L31.5605 58.6523C31.3574 59.6426 31.3574 59.9473 31.4844 60.6836C31.5605 61.1279 31.7891 61.8135 31.9922 62.207C32.4619 63.1465 33.6553 64.251 34.6201 64.6445L35.3564 64.9365H48.2422H61.1279L61.9531 64.543C63.7051 63.7051 64.8096 62.1689 64.9619 60.3662C65.0889 58.7158 65.0508 58.627 60.0361 49.9561L55.4531 42.0215L55.9609 40.8408C56.9766 38.4668 57.6748 36.0166 58.1064 33.3506C58.4111 31.3828 58.4111 27.041 58.1064 25.0098C56.6211 15.2978 50.6289 7.16015 41.8564 2.91992C39.0889 1.58691 36.4736 0.761711 33.5156 0.317375C32.2334 0.126945 27.8916 -0.0380936 26.8506 0.0761642ZM32.7539 9.2041C34.1377 9.4707 35.7119 9.94043 37.0703 10.499C37.667 10.7402 38.1621 10.9561 38.1875 10.9814C38.2002 10.9941 38.0732 11.2988 37.8828 11.6543C37.4766 12.4287 37.54 12.9238 38.1113 13.3936C38.7715 13.9521 39.6729 13.6982 40.1172 12.8223C40.2568 12.543 40.4092 12.3144 40.4473 12.3144C40.6377 12.3144 42.6436 13.9648 43.5322 14.8662C44.4336 15.7549 46.084 17.7607 46.084 17.9512C46.084 17.9893 45.8555 18.1416 45.5762 18.2812C44.7002 18.7256 44.4463 19.6269 45.0049 20.2871C45.4746 20.8584 45.9697 20.9219 46.7441 20.5156C47.0996 20.3252 47.4043 20.1982 47.417 20.2109C47.5059 20.2998 48.1787 21.9883 48.458 22.7881C48.8262 23.8672 49.207 25.5557 49.3213 26.5967C49.3594 27.0156 49.4229 27.4853 49.4609 27.6377C49.5117 27.9297 49.499 27.9297 48.1279 27.9297C46.5791 27.9297 46.1602 28.0566 45.8809 28.5771C45.665 29.0088 45.6523 29.3389 45.8555 29.7705C46.1094 30.3291 46.5537 30.4687 48.1025 30.4687H49.5117L49.4482 30.8115C49.4229 31.0146 49.334 31.624 49.2578 32.1826C49.1816 32.7412 49.0547 33.4775 48.9658 33.833L48.8008 34.4678L47.9121 34.5439C46.2617 34.6963 44.8398 35.4961 44.0146 36.7148C43.7734 37.083 42.2373 39.6855 40.625 42.5039C37.2734 48.3057 37.7432 47.7852 35.293 48.5469C33.8838 48.9785 32.335 49.3086 31.0781 49.4229L30.4688 49.4863V48.0898C30.4688 46.5537 30.3291 46.1094 29.7705 45.8555C29.3516 45.665 29.0469 45.665 28.6279 45.8555C28.0693 46.1094 27.9297 46.5537 27.9297 48.1025V49.499L27.46 49.4355C25.7207 49.207 24.2988 48.9404 23.4229 48.6611C22.5596 48.3945 20.3252 47.5312 20.2109 47.417C20.1982 47.4043 20.3252 47.0996 20.5156 46.7441C20.9219 45.9697 20.8584 45.4746 20.2871 45.0049C19.627 44.4463 18.7256 44.7002 18.2812 45.5762C18.1416 45.8555 17.9893 46.084 17.9512 46.084C17.9131 46.084 17.4307 45.7412 16.8721 45.3096C14.8916 43.8115 12.0479 40.625 12.4541 40.3584C12.5557 40.2949 12.8096 40.1299 13.0254 39.9902C13.749 39.5205 13.9141 38.7207 13.3936 38.1113C12.9238 37.54 12.4287 37.4766 11.6543 37.8828C11.2988 38.0732 10.9941 38.2002 10.9814 38.1875C10.8799 38.0859 10.207 36.3594 9.88965 35.4199C9.52148 34.3662 9.08984 32.2715 8.97559 31.0654L8.91211 30.4687H10.2959C11.8193 30.4687 12.2383 30.3418 12.5176 29.8213C12.7461 29.3769 12.7461 29.0215 12.5176 28.5771C12.2383 28.0566 11.8193 27.9297 10.2959 27.9297H8.91211L8.97559 27.3203C9.08984 26.1269 9.52148 24.0322 9.88965 22.9785C10.207 22.0391 10.8799 20.3125 10.9814 20.2109C10.9941 20.1982 11.2988 20.3252 11.6543 20.5156C12.4287 20.9219 12.9238 20.8584 13.3936 20.2871C13.9268 19.6523 13.749 18.8652 12.9619 18.3701C12.7207 18.2178 12.4668 18.0527 12.4033 18.0146C12.3398 17.9639 12.6191 17.4814 13.0254 16.9355C14.2188 15.3486 16.25 13.4062 17.6719 12.5176L18.0146 12.2891L18.2812 12.8096C18.7256 13.6982 19.6143 13.9521 20.2871 13.3936C20.8584 12.9238 20.9219 12.4287 20.5156 11.6543C20.3252 11.2988 20.1982 10.9941 20.2109 10.9814C20.3379 10.8545 22.585 10.0039 23.4863 9.72461C24.5273 9.41992 26.1904 9.07714 27.2314 8.96289C28.2598 8.86132 31.7002 9.00097 32.7539 9.2041ZM49.1943 37.3115C49.4736 37.4385 49.8545 37.7051 50.0322 37.9082C50.2227 38.1113 53.0664 42.9609 56.3799 48.6738C63.1465 60.4043 62.8291 59.7187 62.1182 61.0645C61.8262 61.623 61.623 61.8135 61.0771 62.1055L60.4043 62.4609H48.3184C40.2061 62.4609 36.0801 62.4102 35.7627 62.3213C34.5566 61.9912 33.7061 60.5439 34.0107 59.3633C34.1631 58.7539 45.792 38.4922 46.3252 37.9082C46.7568 37.4258 47.5439 37.0703 48.1787 37.0703C48.458 37.0703 48.915 37.1846 49.1943 37.3115Z" fill="#EEEEEE"/>
<path d="M28.5771 11.6035C27.9424 11.959 27.9424 11.9336 27.9297 18.6621V24.9463L27.3203 25.1875C26.5586 25.5049 25.5049 26.5586 25.1875 27.3203L24.9463 27.9297H21.7344C18.2432 27.9297 17.9639 27.9805 17.6719 28.6279C17.4814 29.0469 17.4814 29.3516 17.6719 29.7705C17.9639 30.418 18.2432 30.4688 21.7344 30.4688H24.9463L25.1748 31.04C25.5303 31.9033 26.3047 32.6904 27.2695 33.1602C28.0186 33.5283 28.2344 33.5791 29.1992 33.5791C30.1006 33.5791 30.3926 33.5283 30.9893 33.249C31.9922 32.7793 32.6777 32.1064 33.1602 31.1289C33.5283 30.3799 33.5791 30.1641 33.5791 29.1992C33.5791 28.2344 33.541 28.0186 33.1602 27.2695C32.6904 26.3047 31.9033 25.5303 31.04 25.1748L30.4688 24.9463V18.7002C30.4688 14.1299 30.4307 12.3652 30.3164 12.124C30.0371 11.5146 29.1992 11.2607 28.5771 11.6035ZM30.0879 27.5488C30.6592 27.8408 31.1035 28.5645 31.1035 29.2119C31.1035 30.1514 30.1387 31.1035 29.1865 31.1035C28.2598 31.1035 27.2949 30.1387 27.2949 29.1992C27.2949 28.5898 27.7393 27.8408 28.2852 27.5615C28.8945 27.2314 29.4658 27.2314 30.0879 27.5488Z" fill="#EEEEEE"/>
<path d="M47.6582 43.5449C46.9854 43.8115 46.9727 43.9258 46.9727 48.2041C46.9727 52.127 46.9727 52.165 47.2646 52.4951C47.4424 52.7109 47.7217 52.8506 48.0645 52.9014C48.5215 52.9648 48.6484 52.9141 49.0166 52.584L49.4482 52.2031V48.1787V44.1543L49.0293 43.7861C48.6104 43.4053 48.1787 43.3291 47.6582 43.5449Z" fill="#EEEEEE"/>
<path d="M47.6582 56.2403C46.96 56.5196 46.7442 57.6114 47.2647 58.2081C47.4424 58.4239 47.7217 58.5635 48.0645 58.6143C48.5215 58.6651 48.6484 58.627 49.0039 58.3096C50.083 57.3448 49.0039 55.6944 47.6582 56.2403Z" fill="#EEEEEE"/>
<path d="M8.91213 8.31542C8.42971 8.53124 8.11233 9.15331 8.21389 9.67382C8.39163 10.626 9.59768 10.9941 10.3086 10.3213C10.8037 9.85155 10.8037 9.06444 10.334 8.58202C10.1436 8.40429 9.92776 8.25194 9.8262 8.25194C9.73733 8.25194 9.59768 8.22655 9.49612 8.18847C9.40725 8.16308 9.14065 8.21386 8.91213 8.31542Z" fill="#EEEEEE"/>
</g>
<defs>
<clipPath id="clip0_2_1832">
<rect width="65" height="65" fill="white"/>
</clipPath>
</defs>
</svg>
