<svg width="1443" height="724" viewBox="0 0 1443 724" fill="none" xmlns="http://www.w3.org/2000/svg">
<rect width="1440" height="708" fill="url(#paint0_radial_47_9401)"/>
<path d="M1149 369C1287.07 369 1399 480.929 1399 619C1399 656.502 1390.74 692.074 1375.95 724H1374.84C1389.7 692.094 1398 656.516 1398 619C1398 481.481 1286.52 370 1149 370C1011.48 370 900 481.481 900 619C900 656.516 908.297 692.094 923.156 724H922.054C907.258 692.074 899 656.502 899 619C899 480.929 1010.93 369 1149 369Z" fill="white" fill-opacity="0.09"/>
<path d="M1148 313C1320.87 313 1461 442.27 1461 601.732L1460.99 603.6C1460.7 646.225 1450.39 686.658 1432.14 723H1431.01C1449.62 686.143 1460 645.051 1460 601.732C1460 442.897 1320.39 314 1148 314C975.61 314 836 442.897 836 601.732C836 645.051 846.384 686.143 864.985 723H863.863C845.606 686.658 835.299 646.225 835.007 603.6L835 601.732C835 442.27 975.135 313 1148 313Z" fill="white" fill-opacity="0.09"/>
<path d="M1139 247C1342.79 247 1508 397.079 1508 582.211L1507.99 584.379C1507.65 633.866 1495.5 680.808 1473.97 723H1472.85C1494.76 680.206 1507 632.5 1507 582.211C1507 397.719 1342.33 248 1139 248C935.667 248 771 397.719 771 582.211C771 632.5 783.236 680.206 805.154 723H804.026C782.502 680.808 770.353 633.866 770.008 584.379L770 582.211C770 397.079 935.207 247 1139 247Z" fill="white" fill-opacity="0.09"/>
<defs>
<radialGradient id="paint0_radial_47_9401" cx="0" cy="0" r="1" gradientUnits="userSpaceOnUse" gradientTransform="translate(959.5 592.5) rotate(-27.9744) scale(463.677 456.766)">
<stop stop-color="#EB9039"/>
<stop offset="0.850962" stop-color="#242636"/>
</radialGradient>
</defs>
</svg>
