<svg width="60" height="60" viewBox="0 0 60 60" fill="none" xmlns="http://www.w3.org/2000/svg">
<g clip-path="url(#clip0_2_1816)">
<path d="M12.3633 0.246075C11.9766 0.374981 11.4023 0.691387 11.0742 0.937481C10.7578 1.19529 8.37891 3.51561 5.78907 6.11717C1.78126 10.1367 1.04297 10.9453 0.750005 11.5429L0.410161 12.2461L0.375005 34.2773C0.351568 58.6054 0.292974 56.9179 1.08985 58.0781C1.62891 58.8633 2.48438 59.4961 3.39844 59.7656C4.14844 60 4.46485 60 24.375 59.9765L44.5899 59.9414L45.3164 59.6015C46.125 59.2383 47.0508 58.3476 47.4375 57.5859C47.8945 56.6836 48.0938 54.75 47.8008 54.0937C47.5313 53.4961 46.5938 53.4492 46.3008 54.0117C46.2305 54.1406 46.1719 54.5859 46.1719 55.0195C46.1719 56.2265 45.9844 56.789 45.3633 57.4336C45 57.7969 44.6602 58.0312 44.3438 58.1133C43.9922 58.207 38.1445 58.2304 23.8828 58.2187L3.90235 58.1836L3.33985 57.832C2.91797 57.5742 2.67188 57.3047 2.43751 56.8476L2.10938 56.2265V34.5586V12.9023L6.48047 12.8672C10.3828 12.832 10.8867 12.8086 11.3086 12.6211C11.8477 12.375 12.4453 11.8359 12.8086 11.25C13.0547 10.8515 13.0664 10.7109 13.125 6.32811L13.1836 1.81639L28.5234 1.78123C39.3633 1.76951 44.0039 1.79295 44.3438 1.8867C45.0117 2.06248 45.8555 2.95311 46.0313 3.66795C46.125 4.04295 46.1719 6.05857 46.1719 10.3008C46.1719 16.2539 46.1836 16.418 46.4063 16.6406C46.7578 16.9922 47.3789 16.957 47.6836 16.5703C47.9297 16.2656 47.9297 16.1484 47.9297 10.1836C47.9297 3.89061 47.8945 3.31639 47.4375 2.41404C47.0508 1.65232 46.125 0.7617 45.3164 0.398418L44.5899 0.0585747L28.8281 0.0351372C13.1836 0.0116997 13.0664 0.0116997 12.3633 0.246075ZM11.1797 10.5117C10.8164 11.0859 10.4766 11.1328 6.77344 11.1328H3.33985L7.32422 7.14842L11.3086 3.16404L11.3438 6.69139C11.3672 9.7617 11.3438 10.2656 11.1797 10.5117Z" fill="white"/>
<path d="M19.4414 6.36328C19.2305 6.50391 18.9258 6.80859 18.7852 7.01953C18.5273 7.39453 18.5156 7.53516 18.5156 9.39844C18.5156 11.6836 18.6094 12.0117 19.3594 12.5156C19.7461 12.7617 19.9922 12.8203 20.8008 12.8672C21.9492 12.9258 22.2891 12.8672 22.6172 12.5156C22.9219 12.1875 22.9102 11.8359 22.6172 11.4492C22.3945 11.168 22.2891 11.1445 21.3516 11.1094L20.332 11.0742L20.2969 9.45703L20.2617 7.85156H29.4727H38.6836L38.6484 9.45703L38.6133 11.0742L32.1797 11.1094C25.7578 11.1328 25.7344 11.1328 25.4648 11.3906C25.0195 11.8008 25.125 12.4336 25.6758 12.7148C25.957 12.8672 27.0117 12.8906 32.3203 12.8906C36.7148 12.8906 38.7539 12.8555 39.0352 12.7617C39.5156 12.5977 40.125 12.0469 40.3125 11.6016C40.3945 11.3906 40.4297 10.5938 40.4062 9.28125C40.3711 7.10156 40.3242 6.96094 39.5625 6.39844C39.2461 6.15234 39.1289 6.15234 29.543 6.11719L19.8398 6.09375L19.4414 6.36328Z" fill="white"/>
<path d="M45.7266 19.5352C45.4453 19.6289 44.8828 20.0274 44.4258 20.4492C43.4883 21.3047 43.1836 21.3985 42.0938 21.211C40.6758 20.9531 39.293 21.4805 38.5547 22.5703C38.1094 23.2149 37.9922 23.5313 37.8633 24.4336C37.7227 25.4063 37.5235 25.6758 36.586 26.168C35.1211 26.9414 34.418 28.0078 34.4063 29.4258C34.4063 30.0703 34.4766 30.3281 34.8399 31.1016C35.3672 32.2031 35.3789 32.6133 34.9219 33.4922C33.8203 35.6133 34.4649 37.5703 36.6328 38.6485C37.5 39.0821 37.711 39.3985 37.875 40.4063C38.0274 41.3789 38.3203 42.0352 38.8828 42.5977C39.3164 43.043 40.3125 43.5938 40.6993 43.5938C40.8868 43.5938 40.8985 43.875 40.8985 47.7774C40.8985 51.6211 40.9219 52.0078 41.1211 52.4531C41.3672 53.0039 41.7071 53.2735 42.3399 53.4492C42.9844 53.625 43.3711 53.4727 45.2461 52.3125C46.1602 51.75 46.9571 51.293 47.0391 51.293C47.1094 51.293 47.8711 51.7266 48.7383 52.2656C50.6602 53.461 51.0469 53.6133 51.7149 53.4258C52.2657 53.2852 52.6641 52.9688 52.9453 52.4414C53.1211 52.1367 53.1446 51.5274 53.1797 47.8594L53.2149 43.6406L53.7188 43.5C54.3516 43.336 55.1485 42.7383 55.5703 42.1289C55.8868 41.6602 55.9922 41.3086 56.25 40.0664C56.4024 39.293 56.6953 38.9766 57.6797 38.5078C58.3946 38.168 58.9102 37.6641 59.3203 36.8789C59.5313 36.4805 59.5899 36.1875 59.5899 35.3789C59.5899 34.4649 59.5547 34.3125 59.1914 33.6211C58.6758 32.6367 58.6758 32.168 59.1914 31.1719C59.5547 30.4805 59.5899 30.3164 59.5899 29.4141C59.5899 28.5352 59.5547 28.3477 59.25 27.8086C58.8164 27.0235 58.4532 26.6836 57.5274 26.2031C56.6602 25.7578 56.2969 25.2891 56.1914 24.5156C55.9922 23.0508 55.336 22.0547 54.2227 21.5156C53.4024 21.1172 52.7813 21.0352 51.8672 21.211C50.8243 21.4102 50.4961 21.3047 49.711 20.543C48.7969 19.6524 48.1055 19.336 47.0508 19.3477C46.6055 19.3477 46.0078 19.4297 45.7266 19.5352ZM48.4688 21.8086C49.4414 22.711 50.0977 23.0156 51.0938 23.0156C51.5157 23.0156 52.125 22.9805 52.4414 22.9219C53.5078 22.7578 54.2813 23.4492 54.4336 24.6914C54.5977 26.1094 55.2774 27.0352 56.6133 27.7149C57.4922 28.1602 57.7852 28.5235 57.8672 29.2735C57.9141 29.7071 57.8555 29.9297 57.4688 30.668C57.0586 31.4649 57.0235 31.6289 57.0235 32.4258C57.0352 33.1875 57.0821 33.3867 57.4571 34.1133C58.2071 35.543 57.9961 36.3281 56.6719 37.043C55.2422 37.8164 54.6094 38.6836 54.4336 40.1016C54.3282 40.9805 54.0235 41.4492 53.3555 41.7422C52.8633 41.9531 52.7578 41.9649 52.1368 41.836C50.7657 41.543 49.5118 41.918 48.5743 42.8906C47.9766 43.5117 47.5899 43.711 46.9922 43.711C46.3711 43.711 46.125 43.5821 45.3868 42.8321C44.543 41.9766 43.7227 41.6602 42.5977 41.7774C41.2618 41.918 40.7813 41.8828 40.4532 41.6367C39.9258 41.25 39.7149 40.8516 39.6094 40.043C39.4102 38.6485 38.7539 37.7227 37.5703 37.1485C36.7383 36.7617 36.5274 36.5625 36.2696 35.9297C36.0352 35.3906 36.1055 35.0039 36.6094 34.0547C36.9258 33.4336 36.9727 33.2461 36.9727 32.4024C36.9727 31.5703 36.9258 31.3594 36.5977 30.6914C36.1055 29.6953 36.0586 29.5078 36.1993 28.9805C36.3516 28.418 36.7618 28.0313 37.6407 27.6094C38.7539 27.0821 39.4102 26.1328 39.6094 24.7617C39.7149 23.9414 39.9258 23.5547 40.4766 23.1563C40.7461 22.9571 40.9336 22.9219 41.5196 22.9571C43.2539 23.0625 43.7578 23.0274 44.3438 22.7344C44.6719 22.5821 45.1641 22.2071 45.4571 21.9024C46.1602 21.1992 46.3477 21.1055 47.086 21.0938C47.6836 21.0938 47.7305 21.1172 48.4688 21.8086ZM43.5118 43.6172C43.6524 43.6875 44.0625 44.0156 44.4258 44.3555C45.4102 45.2578 45.7969 45.4102 47.0508 45.4102C48.293 45.4102 48.7618 45.211 49.5703 44.3555C50.1328 43.7696 50.6602 43.4766 51.1524 43.4766H51.4453V47.5664C51.4453 49.8281 51.4102 51.6914 51.3633 51.7149C51.3047 51.75 50.4844 51.2813 49.5118 50.6836C47.6719 49.5352 47.0977 49.3242 46.4766 49.5703C46.2891 49.6406 45.4219 50.1446 44.5313 50.6836C43.6524 51.2344 42.8672 51.6797 42.7969 51.6797C42.6914 51.6797 42.6563 50.5899 42.6563 47.5781V43.4766H42.961C43.125 43.4766 43.3711 43.5352 43.5118 43.6172Z" fill="white"/>
<path d="M45.2109 25.2656C43.8164 25.5937 42.1523 26.6836 41.2617 27.832C40.1836 29.2266 39.6914 30.668 39.6914 32.4023C39.6914 34.4531 40.3594 36.0351 41.8945 37.5703C42.9258 38.6133 43.9688 39.2226 45.3516 39.5625C46.3945 39.8203 48.293 39.7383 49.3359 39.3867C51.5742 38.625 53.2852 36.8437 54.0938 34.4531C54.3867 33.5976 54.3984 31.2773 54.1172 30.4101C53.2617 27.7734 51.3281 25.8867 48.8086 25.2539C47.9531 25.0312 46.1133 25.043 45.2109 25.2656ZM49.3711 27.3281C51.5156 28.3476 52.7461 30.457 52.582 32.8125C52.5 33.9375 52.1484 34.8633 51.4688 35.7773C49.5 38.3672 45.6914 38.7187 43.3008 36.539C41.8828 35.2383 41.2617 33.5508 41.4961 31.6172C41.7422 29.5898 43.3242 27.7148 45.3281 27.0586C45.8438 26.8828 46.2773 26.8476 47.2266 26.8711C48.375 26.8945 48.5156 26.9297 49.3711 27.3281Z" fill="white"/>
<path d="M7.16016 21.6328C6.84376 22.0429 6.85548 22.3007 7.19532 22.6992L7.47657 23.0273L18.7149 23.0625C24.8906 23.0859 30.1172 23.0625 30.3281 23.0273C31.1016 22.8867 31.4414 22.0664 30.9375 21.5625C30.7031 21.3281 30.5508 21.3281 19.0547 21.3281H7.39454L7.16016 21.6328Z" fill="white"/>
<path d="M7.41799 27.5625C6.85549 27.832 6.82033 28.7695 7.37111 29.0508C7.52345 29.1445 11.2266 29.1797 19.1367 29.1797H30.668L30.9141 28.9102C31.2774 28.5234 31.2539 27.9727 30.8672 27.668C30.5508 27.4219 30.5156 27.4219 19.1133 27.4336C11.3555 27.4336 7.59377 27.4805 7.41799 27.5625Z" fill="white"/>
<path d="M7.34765 33.7617C6.80859 34.0781 6.8789 35.0625 7.46484 35.2852C7.6289 35.3438 12.5273 35.3906 19.1484 35.3906C30.5156 35.3906 30.5508 35.3906 30.8672 35.1445C31.2656 34.8281 31.2891 34.2422 30.9023 33.8906L30.6328 33.6328H19.0898C11.25 33.6445 7.48827 33.6797 7.34765 33.7617Z" fill="white"/>
<path d="M7.16016 40.1484C6.84376 40.5586 6.85548 40.8164 7.19532 41.2148L7.47657 41.543H19.1016H30.7266L30.9492 41.2617C31.2422 40.9102 31.2305 40.3711 30.9375 40.0781C30.7031 39.8438 30.5508 39.8438 19.0547 39.8438H7.39454L7.16016 40.1484Z" fill="white"/>
<path d="M7.34764 48.9961C6.80858 49.3125 6.86717 50.2266 7.45311 50.4961C7.66404 50.5898 9.48045 50.625 13.5234 50.625C19.1953 50.625 19.3125 50.625 19.6172 50.3789C20.0039 50.0742 20.039 49.4531 19.6875 49.1016C19.4648 48.8789 19.3008 48.8672 13.5117 48.8672C9.5742 48.8789 7.48826 48.9141 7.34764 48.9961Z" fill="white"/>
</g>
<defs>
<clipPath id="clip0_2_1816">
<rect width="60" height="60" fill="white"/>
</clipPath>
</defs>
</svg>
