<svg width="65" height="65" viewBox="0 0 65 65" fill="none" xmlns="http://www.w3.org/2000/svg">
<path d="M1.39658 6.34769C1.0665 6.67777 1.0538 7.4014 1.38388 7.73148C1.76474 8.11234 2.20908 8.15042 5.50986 8.09964L8.53134 8.06156L8.83603 7.70609C9.20419 7.27445 9.22958 6.8682 8.87411 6.42386L8.62021 6.09378H5.129C1.81552 6.09378 1.63779 6.10648 1.39658 6.34769Z" fill="white"/>
<path d="M11.4385 6.42383C11.083 6.86816 11.1084 7.27441 11.4766 7.70605L11.7812 8.06152L15.3486 8.09961L18.916 8.1377V14.168V20.1855H14.041C11.3623 20.1855 9.06445 20.2236 8.9502 20.2617C8.72168 20.3506 8.37891 20.96 8.37891 21.2646C8.37891 21.3789 8.54395 21.6455 8.74707 21.8486L9.11523 22.2168H14.0156H18.916V24.6924V27.168H17.6846C16.3008 27.168 15.8945 27.3076 15.6406 27.8535C15.4375 28.2598 15.6152 28.8691 16.0088 29.0723C16.1484 29.1484 24.959 29.1992 39.7871 29.1992C63.1846 29.1992 63.3496 29.1992 63.6035 28.9453C63.8574 28.6914 63.8574 28.5264 63.8574 17.6465C63.8574 6.7666 63.8574 6.60156 63.6035 6.34766C63.3496 6.09375 63.1846 6.09375 37.5273 6.09375H11.6924L11.4385 6.42383ZM61.8262 17.6465V27.168H41.3867H20.9473V17.6465V8.125H41.3867H61.8262V17.6465Z" fill="white"/>
<path d="M25.6318 9.78803C25.2637 9.92768 25.0605 10.2578 24.959 10.9179C24.9082 11.1718 24.7939 11.5019 24.6797 11.6669C24.4385 11.997 23.7783 12.3144 23.3086 12.3144C23.1182 12.3144 22.8896 12.454 22.7373 12.6445C22.4834 12.9746 22.4707 13.1269 22.4707 17.6718V22.3564L22.7627 22.6484C22.9277 22.8134 23.2959 22.9785 23.6006 23.0292C24.2988 23.1308 24.832 23.6513 24.9463 24.3242C25.0732 25.0986 25.2637 25.3779 25.7588 25.5302C26.0635 25.6191 31.2939 25.6445 41.7295 25.6191C57.0908 25.581 57.2559 25.581 57.5098 25.3271C57.6494 25.1874 57.8144 24.7939 57.8779 24.4511C58.0303 23.6513 58.5381 23.1181 59.2617 23.0165C59.541 22.9785 59.8965 22.8388 60.0361 22.6992C60.29 22.4706 60.3027 22.3437 60.3027 17.6464C60.3027 12.2001 60.3408 12.4287 59.3125 12.2636C58.5381 12.1494 58.0176 11.6289 57.8779 10.8544C57.8144 10.5117 57.6494 10.1054 57.5098 9.96577C57.2559 9.71186 57.1035 9.71186 41.6025 9.68647C31.8652 9.67377 25.835 9.71186 25.6318 9.78803ZM56.1133 12.1113C56.3037 12.708 57.0146 13.4824 57.6875 13.8505L58.2715 14.1552V17.6591V21.163L57.7764 21.3915C57.1543 21.6581 56.5957 22.2294 56.2021 22.9785L55.8975 23.5498L41.4248 23.5878L26.9395 23.6132L26.6729 23.0546C26.3301 22.3691 25.4668 21.5058 24.9209 21.3027L24.502 21.1503V17.6337V14.1171L24.8066 14.041C25.2764 13.9267 26.3555 12.873 26.6602 12.2509L26.9395 11.6796H41.4502H55.9609L56.1133 12.1113Z" fill="white"/>
<path d="M40.752 12.8223C40.6124 12.9619 40.4728 13.2158 40.422 13.3936C40.3839 13.5713 40.2696 13.7109 40.1808 13.7109C39.8761 13.7109 38.8604 14.7266 38.7208 15.1836C38.6319 15.4375 38.5938 15.9453 38.6192 16.3135C38.7208 17.5322 39.4952 18.2051 41.2218 18.6113C41.6915 18.7129 42.1485 18.8652 42.2374 18.9414C42.5167 19.1699 42.4278 19.5508 42.0724 19.6777C41.336 19.957 40.5997 19.7285 40.3585 19.1445C40.0411 18.3574 39.0763 18.1416 38.6065 18.7383C38.2765 19.1572 38.2765 19.5508 38.5811 20.1729C38.8604 20.6934 39.5714 21.3789 39.9903 21.5186C40.13 21.5567 40.3585 21.8233 40.4981 22.1025C40.9171 22.915 41.8946 22.9404 42.2755 22.1406C42.4024 21.8867 42.7071 21.6201 43.1388 21.3916C43.5069 21.2012 43.9132 20.8838 44.0528 20.6934C44.6241 19.8809 44.5987 18.624 43.9767 17.8115C43.5831 17.291 42.9483 16.9609 41.8185 16.6817C41.336 16.5674 40.8663 16.415 40.7901 16.3389C40.5489 16.1611 40.587 15.7676 40.8663 15.6152C41.3868 15.3486 41.7931 15.4629 42.339 16.0723C42.7452 16.5166 42.961 16.6436 43.2784 16.6563C43.8243 16.669 44.3067 16.2119 44.3067 15.666C44.3067 15.1328 43.6466 14.2442 42.9356 13.8633C42.6437 13.6983 42.4024 13.4824 42.4024 13.3809C42.4024 13.2793 42.2628 13.0508 42.0851 12.8858C41.7042 12.4922 41.1075 12.4668 40.752 12.8223Z" fill="white"/>
<path d="M28.501 16.9482C28.2979 17.1387 28.1836 17.4053 28.1836 17.6465C28.1836 17.8877 28.2979 18.1543 28.501 18.3447C28.8057 18.6621 28.8438 18.6621 31.0273 18.6621C33.1475 18.6621 33.2617 18.6494 33.5664 18.3701C34.0869 17.9131 34.1123 17.4688 33.668 17.0117L33.2871 16.6309H31.04C28.8438 16.6309 28.8057 16.6309 28.501 16.9482Z" fill="white"/>
<path d="M49.1943 16.9482C48.9912 17.1387 48.877 17.4053 48.877 17.6465C48.877 17.8877 48.9912 18.1543 49.1943 18.3447C49.499 18.6621 49.5371 18.6621 51.7207 18.6621C53.8662 18.6621 53.9551 18.6494 54.2852 18.3701C54.5391 18.1543 54.6279 17.9512 54.6279 17.6465C54.6279 17.3418 54.5391 17.1387 54.2852 16.9229C53.9551 16.6436 53.8662 16.6309 51.7207 16.6309C49.5371 16.6309 49.499 16.6309 49.1943 16.9482Z" fill="white"/>
<path d="M6.13186 13.2031C5.53518 13.4443 5.40823 14.3076 5.90335 14.79L6.20803 15.1074H11.2989H16.3897L16.6944 14.79C17.2022 14.2822 17.0752 13.5713 16.4151 13.2285C16.085 13.0508 6.5762 13.0254 6.13186 13.2031Z" fill="white"/>
<path d="M1.4219 20.4775C1.05373 20.8711 1.05373 21.582 1.4092 21.9121C1.63772 22.1152 1.91701 22.1533 3.32619 22.1914C4.24026 22.2168 5.11623 22.2041 5.28127 22.166C6.08108 21.9629 6.34768 21.0615 5.77639 20.5029C5.4844 20.1982 5.42092 20.1855 3.5801 20.1855C1.77736 20.1855 1.6885 20.1982 1.4219 20.4775Z" fill="white"/>
<path d="M6.77931 27.3457C6.16993 27.6123 6.00489 28.4756 6.47462 28.9453C6.71583 29.1865 6.89356 29.1992 9.75001 29.1992C12.7461 29.1992 12.7842 29.1992 13.0508 28.9072C13.5586 28.3613 13.3682 27.5488 12.6826 27.3076C12.0733 27.0918 7.28712 27.1299 6.77931 27.3457Z" fill="white"/>
<path d="M22.2168 31.3447C20.4522 31.8398 20.4014 31.8652 13.9649 35.5976C11.0957 37.2734 10.0674 37.8066 9.99124 37.6797C9.01371 36.0039 8.88675 35.8389 8.31546 35.4834C7.80765 35.166 7.56644 35.1025 6.93167 35.1025C6.19535 35.1025 6.0557 35.1533 4.1641 36.2197C2.00589 37.4258 1.51078 37.8447 1.19339 38.6826C0.749057 39.8506 0.672885 39.6982 6.03031 49.1689C8.73441 53.9297 11.0577 57.9668 11.21 58.1318C11.959 58.9443 13.3936 59.1348 14.5108 58.5762C15.8057 57.916 17.8369 56.7099 18.2051 56.3799C18.9414 55.707 19.2334 54.539 18.8907 53.5615C18.8145 53.333 18.5225 52.749 18.2432 52.2666C17.9639 51.7969 17.7608 51.3906 17.7862 51.3652C17.8116 51.3525 18.2559 51.0986 18.7764 50.8066L19.7032 50.2734L27.2823 52.3047C31.4971 53.4346 35.3057 54.3867 35.8516 54.4502C37.6543 54.6533 39.3936 54.2724 41.1455 53.2949C42.8848 52.3047 62.169 40.3711 62.6133 40.0029C62.8799 39.7744 63.2608 39.2412 63.502 38.7588C63.8828 37.9717 63.9209 37.8066 63.9209 36.6894C63.9209 35.5723 63.8828 35.4072 63.502 34.6328C62.2198 32.0176 59.0713 31.5098 55.3135 33.2998C54.666 33.6045 51.4034 35.458 48.0518 37.4131C42.5674 40.5996 41.1328 41.3867 40.752 41.3867C40.6885 41.3867 40.7647 41.1201 40.917 40.7773C41.336 39.8506 41.3106 38.3779 40.8409 37.4258C40.4219 36.5625 39.6348 35.75 38.8477 35.3691C38.5303 35.2041 37.7051 34.9502 37.0069 34.7978C35.1914 34.3916 33.1729 33.7822 30.4053 32.8174C25.6065 31.1289 25.8223 31.1924 24.375 31.1416C23.3594 31.1162 22.8516 31.167 22.2168 31.3447ZM27.295 33.9092C31.4717 35.3691 33.96 36.1435 35.9785 36.626C37.8194 37.0703 38.0352 37.1465 38.4668 37.5654C39.292 38.3525 39.4317 39.457 38.8096 40.3838C38.0352 41.5517 37.0703 41.5264 32.4366 40.2314C30.6211 39.7236 28.9961 39.292 28.8184 39.2666C28.2979 39.1777 27.8028 39.6474 27.8028 40.2314C27.8028 41.0058 28.0567 41.1455 31.4209 42.0723C37.2735 43.6846 39.0762 43.9131 41.3106 43.3418C42.3516 43.0752 42.7325 42.8721 49.1944 39.1015C55.5039 35.4326 56.4053 34.9375 57.6875 34.5439C58.627 34.2519 59.9346 34.1885 60.5186 34.417C62.1182 35.0264 62.4483 37.5781 61.0518 38.6318C60.417 39.1015 40.4219 51.3906 39.6094 51.8096C38.6827 52.2793 37.9971 52.4189 36.6895 52.4316C35.6866 52.4316 35.0264 52.2793 27.5743 50.2734C21.125 48.5469 19.4746 48.1533 19.2207 48.2422C19.043 48.3183 18.4209 48.6484 17.8369 49.0039L16.7578 49.626L16.2754 48.7754C14.625 45.9316 11.1719 39.7617 11.1719 39.6601C11.1846 39.5205 20.211 34.29 21.252 33.833C22.3565 33.3506 23.1817 33.1474 24.1846 33.1474C24.959 33.1348 25.3653 33.2363 27.295 33.9092ZM7.27445 37.2226C7.55374 37.4385 17.0118 54.1582 17.0118 54.4375C17.0118 54.5517 16.961 54.7168 16.9102 54.8057C16.7452 55.0596 13.4571 56.875 13.1524 56.875C12.9873 56.875 12.7715 56.7734 12.67 56.6465C12.5557 56.5322 10.3467 52.6728 7.74417 48.0771C4.02445 41.4883 3.03421 39.6474 3.09769 39.4189C3.16117 39.1904 3.6182 38.8603 4.98929 38.0859C5.97953 37.5273 6.8555 37.0703 6.93167 37.0703C6.99515 37.0703 7.16019 37.1465 7.27445 37.2226Z" fill="white"/>
<path d="M5.58598 39.7998C4.90043 40.5234 5.43363 41.7041 6.43656 41.6787C7.38871 41.6533 7.85844 40.4726 7.17289 39.7998C6.74125 39.3554 5.99223 39.3681 5.58598 39.7998Z" fill="white"/>
</svg>
