<svg width="65" height="65" viewBox="0 0 65 65" fill="none" xmlns="http://www.w3.org/2000/svg">
<g clip-path="url(#clip0_2_1839)">
<path d="M27.5147 0.200073C26.6006 0.6698 26.3721 1.34265 26.3594 3.47546V4.87195L24.9883 5.29089C23.2744 5.8241 21.2432 6.67468 19.999 7.39832L19.0215 7.94421L17.9043 6.82703C17.2822 6.20496 16.5967 5.60828 16.3809 5.50671C15.873 5.2655 15.1494 5.2655 14.7051 5.49402C14.2988 5.72253 8.67481 11.3593 8.47168 11.7528C8.29395 12.1083 8.29395 12.9969 8.47168 13.3524C8.54785 13.5048 9.13184 14.1649 9.7666 14.7997L10.9219 15.9803L10.1475 17.4657C9.2334 19.2303 8.7002 20.5253 8.21777 22.1884L7.875 23.4071L6.03418 23.4706C4.00293 23.5468 3.71094 23.6356 3.25391 24.3973C3.0127 24.7782 3 25.0702 3 29.1073C3 33.2841 3.0127 33.411 3.2793 33.8934C3.73633 34.7059 4.29492 34.8964 6.27539 34.8964C7.78613 34.8964 7.95117 34.9218 7.95117 35.1122C7.95117 35.2391 8.20508 36.077 8.50977 36.9911C9.05566 38.6288 9.71582 40.1268 10.5029 41.536L10.9219 42.2723L9.7666 43.4403C9.13184 44.0878 8.54785 44.7352 8.47168 44.8876C8.39551 45.0399 8.33203 45.4462 8.33203 45.7889C8.33203 46.6268 8.50977 46.8553 11.709 50.0292C14.5654 52.8602 14.9463 53.1395 15.873 52.9745C16.3174 52.911 16.5967 52.6952 17.6885 51.6288C18.3994 50.9305 19.0215 50.3719 19.085 50.3973C19.1357 50.4227 19.7451 50.7528 20.418 51.121C21.4463 51.6923 21.6367 51.8319 21.5479 52.0096C21.4844 52.1239 20.3418 54.0409 19.0215 56.2499C16.3936 60.6425 16.2158 61.036 16.4697 62.1913C16.6982 63.2704 17.6758 64.3114 18.7295 64.6034C19.377 64.7811 62.5537 64.7811 63.2012 64.6034C63.9248 64.4003 64.7119 63.7274 65.1055 62.9657C65.5625 62.077 65.5879 61.1249 65.1563 60.2235C64.9912 59.868 62.3887 55.4755 59.3799 50.4608C56.3711 45.4335 53.9209 41.2948 53.9336 41.2567C53.959 41.2186 54.251 40.6093 54.5938 39.911C55.1904 38.6669 56.3203 35.5565 56.3203 35.1122C56.3203 34.9218 56.4854 34.8964 57.9961 34.8964C59.9766 34.8964 60.5352 34.7059 60.9922 33.8934C61.2588 33.411 61.2715 33.2841 61.2715 29.1073C61.2715 25.0702 61.2588 24.7782 61.0176 24.3973C60.5606 23.6356 60.2686 23.5468 58.2373 23.4706L56.3965 23.4071L56.0537 22.1884C55.5713 20.5253 55.0381 19.2303 54.124 17.4657L53.3496 15.9803L54.5049 14.7997C55.1397 14.1649 55.7236 13.5048 55.7998 13.3524C55.9775 12.9969 55.9775 12.1083 55.7998 11.7528C55.5967 11.3593 49.9727 5.72253 49.5664 5.49402C49.1221 5.2655 48.3984 5.2655 47.8906 5.50671C47.6748 5.60828 46.9893 6.20496 46.3672 6.82703L45.25 7.94421L44.1328 7.32214C42.8252 6.58582 40.4512 5.60828 38.9785 5.18933L37.9375 4.89734L37.8867 3.17078C37.8359 1.27917 37.709 0.847534 36.9854 0.314331C36.6426 0.0604248 36.4648 0.0477295 32.2881 0.00964355C28.3398 -0.0157471 27.9082 -0.00305176 27.5147 0.200073ZM35.8809 4.08484C35.8809 6.58582 35.8428 6.52234 37.6582 6.95398C39.8291 7.47449 41.9365 8.35046 44.082 9.64539C44.666 9.98816 45.2754 10.2675 45.4658 10.2675C45.7451 10.2675 46.126 9.96277 47.2939 8.8075L48.7793 7.34753L51.3691 9.95007L53.959 12.5526L52.4609 14.076C50.7471 15.8026 50.7471 15.7899 51.5342 17.0214C52.6895 18.8241 53.7559 21.3632 54.3525 23.7245C54.8096 25.4891 54.8223 25.5018 57.2852 25.5018H59.2402V29.1835V32.8651H57.2217C55.4824 32.8651 55.165 32.8905 54.9365 33.0809C54.7588 33.246 54.5557 33.7792 54.2891 34.8329C53.9463 36.1405 53.1465 38.4003 52.791 39.0477C52.7022 39.2001 52.2959 38.6288 51.0898 36.5975C49.6299 34.1727 49.5029 33.9315 49.6045 33.576C50.1123 31.8749 50.252 28.1932 49.9092 26.1874C48.6143 18.7733 43.1045 13.0858 35.627 11.4608C34.7891 11.2704 34.0147 11.2196 32.1357 11.2196C30.2568 11.2196 29.4824 11.2704 28.6445 11.4608C21.1543 13.0858 15.6445 18.7733 14.3623 26.1874C14.1211 27.6219 14.1211 30.5419 14.3623 32.0399C15.2891 37.7528 18.8818 42.6405 24.0615 45.243C24.6963 45.5604 25.2168 45.8524 25.2168 45.8778C25.2168 45.9413 22.9189 49.7753 22.8047 49.9149C22.6904 50.0419 21.5352 49.4706 20.1514 48.6327C18.7549 47.7948 18.7295 47.7948 17.0156 49.5087L15.5684 50.9559L12.9658 48.3534L10.3633 45.7635L11.7471 44.3544C12.5469 43.5546 13.1689 42.8055 13.2197 42.6024C13.2959 42.3231 13.1689 42.0184 12.5215 40.9393C12.0898 40.203 11.4805 39.0223 11.1758 38.3114C10.6172 37.0419 9.72852 34.2362 9.72852 33.7411C9.72852 33.6014 9.58887 33.3475 9.41113 33.1825C9.10645 32.8778 9.05566 32.8651 7.0625 32.8651H5.03125V29.1835V25.5018H6.98633C9.44922 25.5018 9.46191 25.4891 9.91895 23.7245C10.5156 21.3632 11.582 18.8241 12.7373 17.0214C13.5244 15.7899 13.5244 15.8026 11.8105 14.076L10.3125 12.5526L12.9023 9.95007L15.4922 7.34753L16.9775 8.8075C18.1455 9.96277 18.5264 10.2675 18.8057 10.2675C18.9961 10.2675 19.6182 9.98816 20.2148 9.62C22.2715 8.37585 25.0772 7.24597 27.0576 6.83972C27.4766 6.75085 27.9463 6.57312 28.1113 6.42078C28.3779 6.16687 28.3906 6.078 28.3906 4.08484V2.0155H32.1357H35.8809V4.08484ZM34.7383 13.3778C37.8994 13.8983 40.7686 15.3456 43.168 17.6434C45.6309 19.9921 47.1797 22.8231 47.8272 26.1747C48.0811 27.4823 48.1699 31.0116 47.9541 31.1385C47.9033 31.1766 46.7354 29.3739 45.3897 27.1141C42.6729 22.5946 42.4951 22.3915 41.2637 22.2518C40.4639 22.1503 39.8164 22.3534 39.2324 22.8739C38.9404 23.1278 36.6426 26.8475 32.5674 33.6522C29.1523 39.3651 26.334 44.037 26.3086 44.037C26.1689 44.037 24.8994 43.4276 24.1377 42.9833C20.0752 40.6473 17.2061 36.5341 16.3936 31.8876C16.292 31.2909 16.2031 30.0341 16.2031 29.1073C16.2031 25.6669 17.1553 22.6454 19.123 19.8905C20.0117 18.6464 21.6875 16.9706 22.9316 16.0819C24.6836 14.8378 27.3242 13.746 29.4189 13.3905C30.8662 13.1493 33.2783 13.1493 34.7383 13.3778ZM41.3652 24.4481C41.4795 24.5751 46.4814 32.8905 52.499 42.9198C60.7383 56.6815 63.4297 61.2645 63.4297 61.5565C63.4297 61.8231 63.3154 62.077 63.0615 62.3309L62.6934 62.6991H41.0225C17.2061 62.6991 18.793 62.7499 18.501 61.9247C18.3994 61.6327 18.4121 61.4423 18.5391 61.1376C18.7803 60.5409 40.4385 24.4481 40.6162 24.3339C40.8701 24.1688 41.1621 24.2196 41.3652 24.4481Z" fill="white"/>
<path d="M39.8291 31.1513C38.4961 31.5321 37.5693 32.37 37.2012 33.5634C36.9726 34.2743 36.9726 34.3886 37.5185 42.3612C37.8105 46.8173 38.1152 50.7909 38.1787 51.2099C38.3945 52.6825 39.4101 53.5458 40.8955 53.5458C41.3652 53.5585 41.8476 53.4696 42.165 53.3173C42.7998 53.038 43.4473 52.3144 43.625 51.6923C43.7012 51.4257 44.0185 47.4267 44.3359 42.7929C44.8691 34.8456 44.8945 34.3378 44.7041 33.6903C44.4121 32.6747 43.8281 31.9892 42.8633 31.494C41.8476 30.9989 40.8193 30.872 39.8291 31.1513ZM41.6064 33.1317C42.1777 33.3222 42.4824 33.6015 42.6855 34.0966C42.8379 34.4394 42.7871 35.5946 42.292 42.7294C41.9746 47.2489 41.7207 50.994 41.7207 51.0448C41.7207 51.4765 40.6289 51.705 40.3242 51.3368C40.1338 51.1083 38.9658 34.7567 39.1055 34.2235C39.2197 33.7411 39.5752 33.3856 40.1338 33.1825C40.7558 32.9667 41.0605 32.954 41.6064 33.1317Z" fill="white"/>
<path d="M39.8418 54.6884C39.0547 54.955 38.2803 55.6532 37.8994 56.4403C37.544 57.1766 37.544 58.4589 37.9121 59.2079C38.4453 60.2997 39.791 61.1757 40.959 61.1757C42.0508 61.1757 43.2442 60.452 43.8535 59.4237C44.1455 58.9032 44.1963 58.6874 44.1963 57.8114C44.1963 56.9354 44.1455 56.7196 43.8535 56.1991C43.3965 55.4247 42.6983 54.8661 41.9238 54.6376C41.1113 54.3964 40.667 54.4091 39.8418 54.6884ZM41.8858 56.9862C42.8125 58.0272 41.5938 59.6141 40.3496 58.9667C39.8672 58.7128 39.6895 58.4081 39.6895 57.8114C39.6895 57.2274 39.8545 56.9227 40.2988 56.6688C40.8067 56.3895 41.4541 56.5165 41.8858 56.9862Z" fill="white"/>
</g>
<defs>
<clipPath id="clip0_2_1839">
<rect width="65" height="65" fill="white"/>
</clipPath>
</defs>
</svg>
