<svg width="70" height="70" viewBox="0 0 70 70" fill="none" xmlns="http://www.w3.org/2000/svg">
<path d="M33.5645 3.34961C33.1953 3.44531 30.3652 4.59375 27.2754 5.87891C24.1992 7.16406 19.3047 9.21484 16.4063 10.418C13.5078 11.6348 10.9785 12.7148 10.7871 12.8379C9.73438 13.4941 8.77734 14.6426 8.35352 15.8047C8.18945 16.2148 7.92969 17.5684 7.76563 18.7715C7.50586 20.6719 7.46484 21.6426 7.45117 25.6348C7.45117 30.502 7.5332 31.582 8.14844 35.4102C9.59766 44.3789 13.3301 52.1309 18.9355 57.7773C22.4492 61.3047 26.7832 64.1484 31.6504 66.1172L33.291 66.7871H35H36.709L38.3496 66.1309C40.5098 65.2559 43.2441 63.834 45.1445 62.5898C54.1953 56.6973 60.0332 47.1406 61.9199 35.0684C62.4668 31.541 62.5488 30.3652 62.5488 25.7715C62.5352 19.8926 62.1934 16.7617 61.3731 15.1484C60.9356 14.3008 59.7188 13.084 58.8711 12.6738C57.3945 11.9492 37.0918 3.52734 36.3672 3.33594C35.4512 3.10352 34.4668 3.10352 33.5645 3.34961ZM47.0313 10.0352C53.3066 12.6602 58.2422 14.8066 58.502 15.0117C59.3906 15.7363 59.7324 16.5703 60.0332 18.8262C60.3887 21.4785 60.5254 27.1934 60.3066 30.0098C59.418 41.2754 55.8223 49.875 49.3008 56.3965C45.9785 59.7188 42.6426 61.9199 37.8027 63.998C36.4766 64.5723 36.3945 64.5859 35 64.5859C33.6191 64.5859 33.5234 64.5723 32.2109 63.998C31.4727 63.6836 30.2969 63.1367 29.6133 62.7949C19.5781 57.791 13.043 48.8359 10.6094 36.7773C9.46094 31.1035 9.24219 23.625 10.0625 18.1152C10.2949 16.584 10.7324 15.6406 11.498 15.0117C11.8672 14.7246 32.4844 5.97461 34.043 5.45508C34.2344 5.38672 34.7539 5.35938 35.2051 5.38672C35.916 5.42773 37.4883 6.05664 47.0313 10.0352Z" fill="white"/>
<path d="M25.7031 11.7031C20.7813 13.7676 15.9277 15.791 14.9297 16.2148C13.8223 16.6797 13.0293 17.1035 12.9199 17.2812C12.3594 18.1289 11.9766 26.0176 12.291 30.0234C13.5078 45.459 20.6309 56.3281 32.8672 61.4551C34.8086 62.2617 35.1914 62.2617 37.1328 61.4551C49.3691 56.3281 56.4785 45.459 57.709 30.0234C58.0098 26.209 57.6543 18.3066 57.1348 17.3359C57.0664 17.1992 56.8203 16.9941 56.6016 16.8848C55.5078 16.3242 35.2051 7.92968 34.959 7.94336C34.7949 7.94336 30.625 9.63867 25.7031 11.7031ZM45.2813 14.4922L55.207 18.6348L55.2754 19.209C55.7129 22.3809 55.7266 29.1484 55.3164 32.2656C53.5527 45.2949 47.7695 54.0039 37.6934 58.7891C35.3281 59.9102 35.1094 59.9785 34.4805 59.7598C33.4961 59.418 29.8594 57.5723 28.7793 56.875C20.3438 51.3379 15.709 42.8066 14.5469 30.625C14.2051 27.1797 14.4512 18.8125 14.875 18.6211C17.6914 17.3496 34.877 10.2812 35.082 10.3086C35.2324 10.3223 39.8262 12.209 45.2813 14.4922Z" fill="white"/>
<path d="M32.9766 19.8242C31.6504 20.1797 30.748 20.6719 29.6816 21.6699C28.5879 22.6816 28 23.584 27.5352 24.9785C27.207 25.9082 27.1523 26.3184 27.0977 28.2188L27.043 30.4062L26.3047 31.0762C25.8262 31.5 25.416 32.0605 25.1289 32.6484L24.6777 33.5645V39.1016V44.6387L25.1016 45.5273C25.6348 46.6621 26.4824 47.5098 27.6172 48.043L28.5059 48.4668H35H41.4941L42.4102 48.0293C43.5312 47.4961 44.3516 46.6758 44.8984 45.5273L45.3223 44.6387V39.1016V33.5645L44.8711 32.6484C44.584 32.0605 44.1738 31.5 43.6953 31.0762L42.957 30.4062L42.9023 28.2188C42.8477 26.3184 42.793 25.9082 42.4648 24.9785C42 23.584 41.4121 22.6816 40.3184 21.6699C39.2246 20.6582 38.3496 20.1797 36.9688 19.8242C35.6562 19.4824 34.2754 19.4824 32.9766 19.8242ZM37.0508 22.1348C38.7734 22.791 40.127 24.3359 40.5234 26.0996C40.6465 26.6191 40.7422 27.6445 40.7422 28.3555V29.668H34.9863H29.2168L29.2852 27.918C29.3398 26.6055 29.4355 26.0039 29.6543 25.4297C30.2559 23.8574 31.6504 22.5449 33.291 22.0117C34.3574 21.6562 35.9707 21.7109 37.0508 22.1348ZM41.7676 32.334C42.2598 32.6348 42.5469 32.9492 42.8203 33.4824L43.2031 34.207V39.0195C43.2031 42 43.1484 44.0234 43.0527 44.3516C42.8613 45.0352 41.9316 45.9648 41.207 46.1836C40.4414 46.4023 29.5996 46.416 28.834 46.1973C28.123 45.9785 27.4258 45.3633 27.084 44.666C26.8105 44.1055 26.7969 43.8594 26.7969 39.1562V34.2344L27.1523 33.5234C27.3438 33.127 27.6855 32.6758 27.918 32.5117C28.834 31.8691 28.9707 31.8555 35.2188 31.8965L41.1113 31.9238L41.7676 32.334Z" fill="white"/>
<path d="M34.3848 34.4395C32.4844 34.918 31.4727 36.9141 32.252 38.6367C32.4844 39.1426 33.5234 40.1953 33.7969 40.1953C33.8516 40.1953 33.9062 40.8105 33.9062 41.5488C33.9062 42.7793 33.9336 42.957 34.2207 43.2852C34.6719 43.791 35.3281 43.791 35.7793 43.2852C36.0664 42.957 36.0937 42.7793 36.0937 41.5488C36.0937 40.8105 36.1484 40.1953 36.2031 40.1953C36.4766 40.1953 37.5156 39.1426 37.748 38.6367C38.2266 37.5703 38.0078 36.2031 37.2148 35.3691C36.5039 34.6172 35.2734 34.2207 34.3848 34.4395ZM35.6562 36.8867C35.8613 37.1465 35.875 37.5293 35.6836 37.8848C35.5742 38.0762 35.3965 38.1445 34.9863 38.1445C34.5488 38.1445 34.4258 38.0898 34.3027 37.8164C33.8652 36.873 35.0273 36.0801 35.6562 36.8867Z" fill="white"/>
</svg>
