<svg width="70" height="70" viewBox="0 0 70 70" fill="none" xmlns="http://www.w3.org/2000/svg">
<path d="M21 4.58009C20.3711 4.79884 19.6191 5.48243 19.2773 6.15235C19.1406 6.41212 18.9902 7.04102 18.9355 7.53321L18.8398 8.43555L18.0605 8.68165C17.6367 8.8047 16.8711 9.11915 16.3516 9.37891C15.8184 9.63868 15.3809 9.84376 15.3672 9.84376C15.3398 9.84376 15.0938 9.62501 14.8066 9.36524C14.0273 8.6543 13.4531 8.40821 12.5098 8.40821C11.4434 8.42188 10.4863 8.92774 9.48828 10.0352C8.76367 10.8281 8.33984 11.7578 8.33984 12.5098C8.33984 13.1934 8.77734 14.2188 9.29688 14.7793C9.59766 15.1074 9.84375 15.3809 9.84375 15.3809C9.84375 15.3945 9.63867 15.8184 9.37891 16.3516C9.11914 16.8711 8.80469 17.6367 8.68164 18.0606L8.43555 18.8262L7.60156 18.8945C6.5625 18.9766 5.7832 19.3731 5.16797 20.0977C4.56641 20.7949 4.375 21.4375 4.375 22.791C4.375 24.1172 4.64844 24.9648 5.27734 25.6211C5.93359 26.3047 6.45312 26.5371 7.49219 26.6328L8.39453 26.7285L8.70898 27.6172C8.88672 28.1094 9.21484 28.9023 9.44727 29.3809L9.85742 30.2695L9.44727 30.625C8.53125 31.459 8.17578 32.7441 8.53125 33.9473C8.79102 34.8359 9.91211 36.1484 10.8828 36.7227C12.168 37.4746 13.8633 37.2285 14.9023 36.1621L15.3535 35.6973L16.0508 36.0527C16.4336 36.2441 17.2129 36.5723 17.7734 36.7773L18.7988 37.1602L18.9082 38.0078C19.0312 38.9648 19.3457 39.6758 19.9062 40.2363L20.2891 40.6191L13.6582 47.2773C6.39844 54.5645 6.4668 54.4824 6.125 56.4512C5.57812 59.6504 7.84766 63.123 10.9512 63.834C12.3184 64.1484 14.1914 63.8887 15.5039 63.2051C16.0098 62.9316 17.9648 61.0859 22.791 56.2734L29.3809 49.7109L29.7637 50.0938C30.3242 50.6543 31.0352 50.9688 31.9922 51.0918L32.8398 51.2012L33.2227 52.2266C33.4277 52.7871 33.7559 53.5664 33.9473 53.9492L34.3027 54.6465L33.8789 55.043C32.8262 56.0273 32.5391 57.627 33.168 58.8848C33.6875 59.9375 35.082 61.1816 36.0391 61.4688C37.2559 61.8242 38.541 61.4688 39.375 60.5527L39.7305 60.1426L40.6191 60.5527C41.0977 60.7852 41.8906 61.1133 42.3828 61.291L43.2715 61.6055L43.3672 62.5078C43.4629 63.5469 43.6953 64.0664 44.3789 64.7227C45.0352 65.3652 45.8691 65.625 47.25 65.625C48.5762 65.625 49.3828 65.3789 50.0117 64.7637C50.668 64.1484 50.9551 63.5059 51.0645 62.4668L51.1602 61.5645L51.9395 61.3184C52.3633 61.1953 53.1289 60.8809 53.6484 60.6211C54.6465 60.1426 54.7969 60.1426 55.3027 60.7031C56.0273 61.5098 57.3945 61.8242 58.5293 61.4551C59.582 61.0996 61.1406 59.5273 61.4414 58.502C61.7148 57.5996 61.7148 57.3809 61.4414 56.4785C61.3047 56 61.0449 55.5762 60.6758 55.207L60.1289 54.6602L60.6758 53.4707C60.9766 52.8281 61.3047 52.0352 61.4004 51.7344L61.5508 51.1738L62.3984 51.1055C63.8066 50.9824 64.7773 50.3125 65.3379 49.082C65.6797 48.3438 65.7207 46.3203 65.4336 45.4863C64.9824 44.2422 63.998 43.5313 62.4668 43.3672L61.6055 43.2715L61.291 42.3828C61.1133 41.8906 60.7852 41.0977 60.5527 40.6191L60.1426 39.7305L60.5527 39.375C61.4688 38.541 61.8242 37.2559 61.4688 36.0527C61.0996 34.7813 59.3086 33.0723 58.0781 32.8262L57.668 32.7441L58.7344 31.8555C63.2734 28.0547 65.0918 21.6563 63.2188 16.0645C62.5488 14.0684 62.2207 13.6719 61.3184 13.7949C61.168 13.8086 58.707 16.1602 55.8496 19.0176L50.6543 24.1992L48.9453 23.6387C48.002 23.3242 47.168 22.9961 47.0859 22.9141C47.0039 22.832 46.6758 21.9981 46.3613 21.0547L45.8008 19.3457L50.9961 14.1504C55.877 9.25587 56.1914 8.92774 56.1914 8.4629C56.1914 7.82032 56 7.5879 55.0977 7.20509C51.4609 5.60548 46.9219 5.67384 43.2578 7.36915C41.125 8.3672 39.3477 9.74805 37.9941 11.4434C37.2559 12.3731 37.1875 12.4277 37.1875 12.0723C37.1875 10.9922 35.2871 8.91407 33.9473 8.53126C32.7441 8.17579 31.459 8.53126 30.625 9.44727L30.2695 9.85743L29.3809 9.44727C28.9023 9.21485 28.1094 8.88673 27.6172 8.70899L26.7285 8.39454L26.6328 7.53321C26.4688 6.00196 25.7578 5.01759 24.5137 4.56641C23.8301 4.33399 21.6836 4.33399 21 4.58009ZM24.0762 6.82227C24.3359 7.02735 24.4043 7.2461 24.4727 8.10743C24.6094 9.74805 24.7598 9.88477 28.0273 11.2793C28.6699 11.5527 29.4219 11.8399 29.709 11.9082C30.4883 12.0996 31.3359 11.8262 32.1152 11.1289C32.4844 10.8008 32.9219 10.5274 33.0859 10.5274C33.2637 10.5274 33.7148 10.8418 34.1934 11.3066C35.1504 12.2227 35.2461 12.6465 34.6035 13.2481C33.4414 14.3418 33.3184 15.4356 34.1797 17.2676L34.7266 18.4434L34.7812 20.6719C34.8086 22.5039 34.877 23.1191 35.1504 24.1582L35.4922 25.416L28.6973 32.2109L21.9023 39.0059L21.5469 38.7734C21.2461 38.582 21.1914 38.4453 21.1914 37.8984C21.1914 37.543 21.123 37.0234 21.041 36.7363C20.877 36.1211 19.9883 35.1777 19.4551 35.0547C19.2363 35 18.375 34.6582 17.5137 34.2891C15.2988 33.3184 14.6699 33.3457 13.4395 34.4668C12.6191 35.2188 12.3047 35.1777 11.3203 34.207C10.8691 33.7422 10.5273 33.2773 10.5273 33.1133C10.5273 32.9629 10.7461 32.5664 11.0059 32.2383C12.1406 30.8438 12.2363 30.0781 11.498 28.6016C11.2793 28.1777 10.9512 27.3711 10.7461 26.8106C10.541 26.2637 10.2539 25.6211 10.1035 25.4023C9.67969 24.8145 8.83203 24.4316 7.95703 24.4453C7.35547 24.4453 7.15039 24.3906 6.89062 24.1309C6.60352 23.8438 6.5625 23.666 6.5625 22.832C6.5625 22.2988 6.61719 21.7383 6.69922 21.6016C6.86328 21.2871 7.5332 21.0547 8.29883 21.0547C9.33789 21.0547 10.1855 20.3848 10.5273 19.3184C10.623 19.0313 10.9375 18.2656 11.2246 17.6094C12.2363 15.3262 12.2227 14.793 11.1289 13.5078C10.7871 13.0977 10.5273 12.6602 10.5273 12.4688C10.5273 12.0859 11.7852 10.6914 12.25 10.582C12.6191 10.4863 13.0293 10.6914 13.6855 11.2793C14.7246 12.209 15.3945 12.1953 17.6094 11.2246C18.2656 10.9375 19.0859 10.5957 19.4414 10.4727C20.125 10.2266 20.877 9.50196 20.9727 8.98243C21.0137 8.81837 21.0684 8.31251 21.1094 7.86134C21.2051 6.75391 21.4375 6.56251 22.7637 6.56251C23.5293 6.56251 23.8301 6.6172 24.0762 6.82227ZM52.2676 8.54493L53.2109 8.79102L48.3438 13.6582C44.1602 17.8555 43.4766 18.5938 43.4766 18.9492C43.4766 19.5098 45.1035 24.3223 45.3906 24.6094C45.6777 24.8965 50.4902 26.5234 51.0508 26.5234C51.4062 26.5234 52.1445 25.8398 56.3418 21.6563L61.209 16.7891L61.4551 17.7324C61.7695 18.9766 61.8789 21.2188 61.6602 22.5039C61.0176 26.5098 58.3652 30.0371 54.6191 31.8555C52.8145 32.7441 51.9531 32.9492 49.8887 33.0449C48.043 33.127 46.5664 32.9219 45.2402 32.4023C44.8711 32.252 44.3926 32.1289 44.1875 32.1289C43.8867 32.1289 41.3984 34.5488 29.3262 46.6074C18.8672 57.0527 14.6562 61.168 14.2188 61.4004C13.8496 61.5781 13.248 61.7285 12.7148 61.7559C9.59766 61.9746 7.23242 58.5293 8.59961 55.7813C8.83203 55.3438 12.9473 51.1191 23.3926 40.6738C39.1152 24.9375 38.1309 26.0176 37.6523 24.9102C36.8867 23.0781 36.6816 20.0566 37.1875 17.9102C38.3086 13.2344 42.3691 9.35157 47.1816 8.33985C48.1387 8.14845 51.2012 8.25782 52.2676 8.54493ZM49.4922 35.2598C51.8848 35.3555 51.8848 35.3555 52.8418 35.834C54.5371 36.6953 55.3027 36.6406 56.4648 35.6152C57.4355 34.7539 57.7227 34.7813 58.6934 35.8066C59.1582 36.2852 59.4727 36.7363 59.4727 36.9141C59.4727 37.0781 59.1992 37.5156 58.8711 37.8848C58.4199 38.377 58.2148 38.7598 58.1055 39.2793C57.9277 40.0723 57.9141 40.0176 58.8984 42.3965C60.0469 45.1445 60.2793 45.3906 61.9062 45.5273C63.2324 45.6367 63.4375 45.8418 63.4375 47.1953C63.4375 47.7148 63.3828 48.2617 63.3008 48.3984C63.1367 48.7129 62.4668 48.9453 61.7012 48.9453C60.5117 48.9453 59.9785 49.4512 59.1992 51.3379C57.7227 54.8926 57.709 55.1113 58.8027 56.4102C59.1855 56.875 59.4727 57.3398 59.4727 57.5313C59.4727 57.9141 58.2012 59.3086 57.75 59.418C57.3809 59.5137 56.9707 59.3086 56.3008 58.707C56.0273 58.4609 55.5488 58.1875 55.2344 58.0918C54.6191 57.9004 54.0996 58.0508 51.3379 59.1992C49.4512 59.9785 48.9453 60.5117 48.9453 61.7012C48.9453 62.4668 48.7129 63.1367 48.3984 63.3008C48.2617 63.3828 47.7012 63.4375 47.168 63.4375C46.334 63.4375 46.1562 63.3965 45.8691 63.1094C45.6094 62.8496 45.5547 62.6445 45.5547 62.043C45.5684 61.168 45.1855 60.3203 44.5977 59.8965C44.3789 59.7461 43.7363 59.459 43.1895 59.2539C42.6289 59.0488 41.8359 58.7207 41.4258 58.5156C39.9492 57.7773 38.9922 57.873 37.8848 58.8711C37.5156 59.1992 37.0781 59.4727 36.9141 59.4727C36.7363 59.4727 36.2852 59.1582 35.8066 58.6934C34.8086 57.7363 34.7539 57.4082 35.5332 56.5605C36.2441 55.7676 36.4082 55.4258 36.4082 54.6191C36.4082 54.1133 36.2852 53.6895 35.9297 52.9785C35.6699 52.4453 35.3145 51.5977 35.1367 51.0781C34.6172 49.5059 33.6875 48.8086 32.1016 48.8086C31.5547 48.8086 31.418 48.7539 31.2266 48.4531L30.9941 48.0977L37.7891 41.3027L44.584 34.5078L45.8418 34.8359C46.8262 35.0957 47.6328 35.1914 49.4922 35.2598Z" fill="white"/>
<path d="M20.3984 13.8086C18.7715 14.2324 17.582 14.9434 16.2559 16.2695C14.2598 18.252 13.4258 20.3848 13.5762 23.2285C13.7676 27.2207 16.0098 30.2285 19.8106 31.5547C20.7402 31.8828 21.041 31.9102 22.7637 31.9102C24.4727 31.9102 24.8008 31.8691 25.7715 31.541C28.6016 30.5977 30.6523 28.5469 31.5684 25.7031C33.2363 20.5898 30.3652 15.2578 25.1563 13.8223C23.8164 13.4531 21.793 13.4395 20.3984 13.8086ZM24.4453 15.9277C25.7441 16.2422 26.7285 16.7617 27.6719 17.6504C30.1055 19.9199 30.5566 23.8164 28.7246 26.6055C27.3574 28.6836 25.3066 29.8184 22.832 29.832C20.7813 29.8594 19.168 29.1758 17.7051 27.6855C16.3789 26.3457 15.7227 24.7461 15.7227 22.832C15.7227 20.8359 16.3789 19.168 17.7051 17.8281C19.4277 16.0781 21.9981 15.3535 24.4453 15.9277Z" fill="white"/>
<path d="M45.9101 38.0078C43.9004 38.3223 42.1367 39.2246 40.6738 40.6738C38.1445 43.2168 37.3515 46.5801 38.4316 50.1348C39.3066 53.0332 41.6582 55.2617 44.707 56.1367C45.9101 56.4649 48.3984 56.4785 49.6289 56.1504C52.1445 55.4805 54.2226 53.8672 55.3437 51.7207C58.543 45.5547 54.5918 38.418 47.7148 37.9531C47.1543 37.9258 46.334 37.9531 45.9101 38.0078ZM48.8359 40.3457C50.709 40.7422 52.7187 42.2598 53.498 43.8867C55.5078 48.0703 53.4844 52.7735 49.0957 54.0586C48.6719 54.1817 47.8515 54.2774 47.1953 54.2774C42.5469 54.2774 39.2109 49.9434 40.3867 45.4043C41.3437 41.6992 44.9531 39.5391 48.8359 40.3457Z" fill="white"/>
</svg>
